<mxfile host="app.diagrams.net" modified="2024-05-08T14:41:03.498Z" agent="Mozilla/5.0 (Windows NT 10.0; Win64; x64) AppleWebKit/537.36 (KHTML, like Gecko) Chrome/124.0.0.0 Safari/537.36 Edg/124.0.0.0" etag="9Jfu1lap60SeXyH5KZTG" version="24.3.1" type="device">
  <diagram name="Страница — 1" id="KIvKeU64tK2ndb9iEQZ6">
    <mxGraphModel dx="788" dy="449" grid="1" gridSize="10" guides="1" tooltips="1" connect="1" arrows="1" fold="1" page="1" pageScale="1" pageWidth="827" pageHeight="1169" math="0" shadow="0">
      <root>
        <mxCell id="0" />
        <mxCell id="1" parent="0" />
        <mxCell id="ZE5Q8cNiFLXoDyybBPEV-1" value="User" style="swimlane;fontStyle=0;childLayout=stackLayout;horizontal=1;startSize=26;horizontalStack=0;resizeParent=1;resizeParentMax=0;resizeLast=0;collapsible=1;marginBottom=0;align=center;fontSize=14;" vertex="1" parent="1">
          <mxGeometry x="330" y="350" width="160" height="116" as="geometry" />
        </mxCell>
        <mxCell id="ZE5Q8cNiFLXoDyybBPEV-2" value="userId" style="text;strokeColor=none;fillColor=none;spacingLeft=4;spacingRight=4;overflow=hidden;rotatable=0;points=[[0,0.5],[1,0.5]];portConstraint=eastwest;fontSize=12;whiteSpace=wrap;html=1;" vertex="1" parent="ZE5Q8cNiFLXoDyybBPEV-1">
          <mxGeometry y="26" width="160" height="30" as="geometry" />
        </mxCell>
        <mxCell id="ZE5Q8cNiFLXoDyybBPEV-3" value="name" style="text;strokeColor=none;fillColor=none;spacingLeft=4;spacingRight=4;overflow=hidden;rotatable=0;points=[[0,0.5],[1,0.5]];portConstraint=eastwest;fontSize=12;whiteSpace=wrap;html=1;" vertex="1" parent="ZE5Q8cNiFLXoDyybBPEV-1">
          <mxGeometry y="56" width="160" height="30" as="geometry" />
        </mxCell>
        <mxCell id="ZE5Q8cNiFLXoDyybBPEV-4" value="email" style="text;strokeColor=none;fillColor=none;spacingLeft=4;spacingRight=4;overflow=hidden;rotatable=0;points=[[0,0.5],[1,0.5]];portConstraint=eastwest;fontSize=12;whiteSpace=wrap;html=1;" vertex="1" parent="ZE5Q8cNiFLXoDyybBPEV-1">
          <mxGeometry y="86" width="160" height="30" as="geometry" />
        </mxCell>
        <mxCell id="ZE5Q8cNiFLXoDyybBPEV-5" value="password" style="text;strokeColor=default;fillColor=none;spacingLeft=4;spacingRight=4;overflow=hidden;rotatable=0;points=[[0,0.5],[1,0.5]];portConstraint=eastwest;fontSize=12;whiteSpace=wrap;html=1;" vertex="1" parent="1">
          <mxGeometry x="330" y="466" width="160" height="30" as="geometry" />
        </mxCell>
        <mxCell id="ZE5Q8cNiFLXoDyybBPEV-6" value="refreshToken" style="text;strokeColor=default;fillColor=none;spacingLeft=4;spacingRight=4;overflow=hidden;rotatable=0;points=[[0,0.5],[1,0.5]];portConstraint=eastwest;fontSize=12;whiteSpace=wrap;html=1;" vertex="1" parent="1">
          <mxGeometry x="330" y="496" width="160" height="30" as="geometry" />
        </mxCell>
        <mxCell id="ZE5Q8cNiFLXoDyybBPEV-7" value="RefreshToken" style="swimlane;fontStyle=0;childLayout=stackLayout;horizontal=1;startSize=26;horizontalStack=0;resizeParent=1;resizeParentMax=0;resizeLast=0;collapsible=1;marginBottom=0;align=center;fontSize=14;" vertex="1" parent="1">
          <mxGeometry x="570" y="410" width="160" height="116" as="geometry" />
        </mxCell>
        <mxCell id="ZE5Q8cNiFLXoDyybBPEV-8" value="tokenId" style="text;strokeColor=none;fillColor=none;spacingLeft=4;spacingRight=4;overflow=hidden;rotatable=0;points=[[0,0.5],[1,0.5]];portConstraint=eastwest;fontSize=12;whiteSpace=wrap;html=1;" vertex="1" parent="ZE5Q8cNiFLXoDyybBPEV-7">
          <mxGeometry y="26" width="160" height="30" as="geometry" />
        </mxCell>
        <mxCell id="ZE5Q8cNiFLXoDyybBPEV-9" value="tokenBody" style="text;strokeColor=none;fillColor=none;spacingLeft=4;spacingRight=4;overflow=hidden;rotatable=0;points=[[0,0.5],[1,0.5]];portConstraint=eastwest;fontSize=12;whiteSpace=wrap;html=1;" vertex="1" parent="ZE5Q8cNiFLXoDyybBPEV-7">
          <mxGeometry y="56" width="160" height="30" as="geometry" />
        </mxCell>
        <mxCell id="ZE5Q8cNiFLXoDyybBPEV-10" value="userId" style="text;strokeColor=none;fillColor=none;spacingLeft=4;spacingRight=4;overflow=hidden;rotatable=0;points=[[0,0.5],[1,0.5]];portConstraint=eastwest;fontSize=12;whiteSpace=wrap;html=1;" vertex="1" parent="ZE5Q8cNiFLXoDyybBPEV-7">
          <mxGeometry y="86" width="160" height="30" as="geometry" />
        </mxCell>
        <mxCell id="ZE5Q8cNiFLXoDyybBPEV-11" value="" style="edgeStyle=entityRelationEdgeStyle;fontSize=12;html=1;endArrow=ERmandOne;startArrow=ERmandOne;rounded=0;exitX=1.016;exitY=0.683;exitDx=0;exitDy=0;exitPerimeter=0;entryX=-0.026;entryY=0.492;entryDx=0;entryDy=0;entryPerimeter=0;" edge="1" parent="1" source="ZE5Q8cNiFLXoDyybBPEV-2" target="ZE5Q8cNiFLXoDyybBPEV-10">
          <mxGeometry width="100" height="100" relative="1" as="geometry">
            <mxPoint x="470" y="480" as="sourcePoint" />
            <mxPoint x="570" y="380" as="targetPoint" />
          </mxGeometry>
        </mxCell>
        <mxCell id="ZE5Q8cNiFLXoDyybBPEV-12" value="" style="edgeStyle=entityRelationEdgeStyle;fontSize=12;html=1;endArrow=ERmandOne;startArrow=ERmandOne;rounded=0;exitX=1.016;exitY=0.413;exitDx=0;exitDy=0;exitPerimeter=0;entryX=-0.017;entryY=0.444;entryDx=0;entryDy=0;entryPerimeter=0;" edge="1" parent="1" source="ZE5Q8cNiFLXoDyybBPEV-6" target="ZE5Q8cNiFLXoDyybBPEV-8">
          <mxGeometry width="100" height="100" relative="1" as="geometry">
            <mxPoint x="470" y="480" as="sourcePoint" />
            <mxPoint x="570" y="380" as="targetPoint" />
          </mxGeometry>
        </mxCell>
        <mxCell id="ZE5Q8cNiFLXoDyybBPEV-13" value="Task" style="swimlane;fontStyle=0;childLayout=stackLayout;horizontal=1;startSize=26;horizontalStack=0;resizeParent=1;resizeParentMax=0;resizeLast=0;collapsible=1;marginBottom=0;align=center;fontSize=14;" vertex="1" parent="1">
          <mxGeometry x="110" y="360" width="160" height="116" as="geometry" />
        </mxCell>
        <mxCell id="ZE5Q8cNiFLXoDyybBPEV-14" value="taskId" style="text;strokeColor=none;fillColor=none;spacingLeft=4;spacingRight=4;overflow=hidden;rotatable=0;points=[[0,0.5],[1,0.5]];portConstraint=eastwest;fontSize=12;whiteSpace=wrap;html=1;" vertex="1" parent="ZE5Q8cNiFLXoDyybBPEV-13">
          <mxGeometry y="26" width="160" height="30" as="geometry" />
        </mxCell>
        <mxCell id="ZE5Q8cNiFLXoDyybBPEV-15" value="title" style="text;strokeColor=none;fillColor=none;spacingLeft=4;spacingRight=4;overflow=hidden;rotatable=0;points=[[0,0.5],[1,0.5]];portConstraint=eastwest;fontSize=12;whiteSpace=wrap;html=1;" vertex="1" parent="ZE5Q8cNiFLXoDyybBPEV-13">
          <mxGeometry y="56" width="160" height="30" as="geometry" />
        </mxCell>
        <mxCell id="ZE5Q8cNiFLXoDyybBPEV-16" value="status&lt;span style=&quot;color: rgba(0, 0, 0, 0); font-family: monospace; font-size: 0px; text-wrap: nowrap;&quot;&gt;%3CmxGraphModel%3E%3Croot%3E%3CmxCell%20id%3D%220%22%2F%3E%3CmxCell%20id%3D%221%22%20parent%3D%220%22%2F%3E%3CmxCell%20id%3D%222%22%20value%3D%22email%22%20style%3D%22text%3BstrokeColor%3Dnone%3BfillColor%3Dnone%3BspacingLeft%3D4%3BspacingRight%3D4%3Boverflow%3Dhidden%3Brotatable%3D0%3Bpoints%3D%5B%5B0%2C0.5%5D%2C%5B1%2C0.5%5D%5D%3BportConstraint%3Deastwest%3BfontSize%3D12%3BwhiteSpace%3Dwrap%3Bhtml%3D1%3B%22%20vertex%3D%221%22%20parent%3D%221%22%3E%3CmxGeometry%20x%3D%22330%22%20y%3D%22436%22%20width%3D%22160%22%20height%3D%2230%22%20as%3D%22geometry%22%2F%3E%3C%2FmxCell%3E%3C%2Froot%3E%3C%2FmxGraphModel%3E&lt;/span&gt;" style="text;strokeColor=none;fillColor=none;spacingLeft=4;spacingRight=4;overflow=hidden;rotatable=0;points=[[0,0.5],[1,0.5]];portConstraint=eastwest;fontSize=12;whiteSpace=wrap;html=1;" vertex="1" parent="ZE5Q8cNiFLXoDyybBPEV-13">
          <mxGeometry y="86" width="160" height="30" as="geometry" />
        </mxCell>
        <mxCell id="ZE5Q8cNiFLXoDyybBPEV-17" value="content" style="text;strokeColor=default;fillColor=none;spacingLeft=4;spacingRight=4;overflow=hidden;rotatable=0;points=[[0,0.5],[1,0.5]];portConstraint=eastwest;fontSize=12;whiteSpace=wrap;html=1;" vertex="1" parent="1">
          <mxGeometry x="110" y="476" width="160" height="30" as="geometry" />
        </mxCell>
        <mxCell id="ZE5Q8cNiFLXoDyybBPEV-18" value="userId" style="text;strokeColor=default;fillColor=none;spacingLeft=4;spacingRight=4;overflow=hidden;rotatable=0;points=[[0,0.5],[1,0.5]];portConstraint=eastwest;fontSize=12;whiteSpace=wrap;html=1;" vertex="1" parent="1">
          <mxGeometry x="110" y="506" width="160" height="30" as="geometry" />
        </mxCell>
        <mxCell id="ZE5Q8cNiFLXoDyybBPEV-19" value="" style="edgeStyle=entityRelationEdgeStyle;fontSize=12;html=1;endArrow=ERoneToMany;rounded=0;exitX=0;exitY=0.5;exitDx=0;exitDy=0;entryX=1;entryY=0.5;entryDx=0;entryDy=0;" edge="1" parent="1" source="ZE5Q8cNiFLXoDyybBPEV-2" target="ZE5Q8cNiFLXoDyybBPEV-18">
          <mxGeometry width="100" height="100" relative="1" as="geometry">
            <mxPoint x="380" y="650" as="sourcePoint" />
            <mxPoint x="480" y="550" as="targetPoint" />
          </mxGeometry>
        </mxCell>
      </root>
    </mxGraphModel>
  </diagram>
</mxfile>
